<svg width="31" height="22" viewBox="0 0 31 22" fill="none" xmlns="http://www.w3.org/2000/svg">
<path d="M0.430664 19.5903C0.430664 20.5299 1.1924 21.2917 2.13205 21.2917H28.8682C29.8078 21.2917 30.5696 20.5299 30.5696 19.5903V19.5903C30.5696 18.6506 29.8078 17.8889 28.8682 17.8889H2.13205C1.1924 17.8889 0.430664 18.6506 0.430664 19.5903V19.5903ZM0.430664 11.0833C0.430664 12.023 1.1924 12.7847 2.13205 12.7847H28.8682C29.8078 12.7847 30.5696 12.023 30.5696 11.0833V11.0833C30.5696 10.1437 29.8078 9.38194 28.8682 9.38194H2.13205C1.1924 9.38194 0.430664 10.1437 0.430664 11.0833V11.0833ZM2.13205 0.875C1.1924 0.875 0.430664 1.63674 0.430664 2.57639V2.57639C0.430664 3.51604 1.1924 4.27778 2.13205 4.27778H28.8682C29.8078 4.27778 30.5696 3.51604 30.5696 2.57639V2.57639C30.5696 1.63674 29.8078 0.875 28.8682 0.875H2.13205Z" fill="#2D2D2D"/>
</svg>
